<svg width="24" height="24" viewBox="0 0 24 24" fill="none" xmlns="http://www.w3.org/2000/svg">
<path d="M22.552 13.21L20.8 6.91603C20.2348 4.88798 19.0081 3.10695 17.3148 1.85592C15.6215 0.604883 13.5587 -0.0444027 11.4541 0.0112171C9.34952 0.066837 7.32387 0.824172 5.699 2.1629C4.07413 3.50162 2.94323 5.34496 2.48598 7.40003L1.13198 13.489C0.953356 14.2929 0.957533 15.1267 1.1442 15.9288C1.33088 16.7308 1.69528 17.4807 2.21052 18.1232C2.72575 18.7656 3.37867 19.2841 4.12109 19.6404C4.86351 19.9968 5.67647 20.1819 6.49998 20.182H6.89998C7.21821 21.2825 7.88542 22.2499 8.80111 22.9383C9.7168 23.6267 10.8314 23.9989 11.977 23.9989C13.1226 23.9989 14.2372 23.6267 15.1529 22.9383C16.0685 22.2499 16.7358 21.2825 17.054 20.182H17.247C18.0949 20.1821 18.9314 19.9862 19.691 19.6095C20.4507 19.2328 21.113 18.6855 21.6261 18.0105C22.1393 17.3355 22.4894 16.5509 22.6491 15.7182C22.8089 14.8854 22.7739 14.027 22.547 13.21H22.552ZM19.243 16.194C19.0109 16.5022 18.71 16.752 18.3644 16.9236C18.0187 17.0951 17.6378 17.1836 17.252 17.182H6.49998C6.12569 17.1819 5.75619 17.0978 5.41875 16.9359C5.08131 16.7739 4.78455 16.5382 4.55035 16.2463C4.31616 15.9543 4.15052 15.6135 4.06564 15.2489C3.98077 14.8844 3.97884 14.5054 4.05998 14.14L5.41398 8.04003C5.7249 6.6361 6.49653 5.37652 7.60603 4.46181C8.71553 3.5471 10.0991 3.02983 11.5366 2.99234C12.974 2.95486 14.3827 3.3993 15.5384 4.25494C16.6941 5.11057 17.5303 6.32821 17.914 7.71403L19.662 14.008C19.7674 14.3798 19.7845 14.7712 19.7117 15.1507C19.639 15.5303 19.4785 15.8876 19.243 16.194V16.194Z" fill="#374957"/>
</svg>
