<svg width="15" height="15" viewBox="0 0 15 15" fill="none" xmlns="http://www.w3.org/2000/svg">
<g clip-path="url(#clip0_23_232)">
<path d="M8.05191 9.50985L3.09253 14.4692C2.92581 14.6443 2.72576 14.7842 2.50415 14.8808C2.28254 14.9774 2.04385 15.0286 1.80213 15.0316C1.56041 15.0345 1.32054 14.9891 1.09664 14.898C0.872738 14.8068 0.669335 14.6718 0.498398 14.5009C0.327462 14.3299 0.192447 14.1265 0.1013 13.9026C0.0101535 13.6787 -0.0352834 13.4388 -0.032336 13.1971C-0.0293886 12.9554 0.0218835 12.7167 0.118463 12.4951C0.215042 12.2735 0.354976 12.0734 0.530029 11.9067L5.4894 6.94735L8.05191 9.50985ZM10.6875 4.31235C10.3425 3.98257 9.88357 3.79853 9.40628 3.79853C8.92899 3.79853 8.47007 3.98257 8.12503 4.31235L6.37503 6.06235L8.93753 8.62485L10.6875 6.87485C11.0272 6.53497 11.218 6.07412 11.218 5.5936C11.218 5.11308 11.0272 4.65223 10.6875 4.31235V4.31235ZM3.0394 3.21547L4.00815 3.49172L4.2844 4.46047C4.32891 4.61592 4.42282 4.75265 4.55193 4.84998C4.68104 4.94732 4.83834 4.99997 5.00003 4.99997C5.16172 4.99997 5.31902 4.94732 5.44813 4.84998C5.57724 4.75265 5.67115 4.61592 5.71566 4.46047L5.9919 3.49172L6.96066 3.21547C7.1161 3.17097 7.25283 3.07706 7.35017 2.94795C7.4475 2.81884 7.50015 2.66154 7.50015 2.49985C7.50015 2.33816 7.4475 2.18086 7.35017 2.05175C7.25283 1.92263 7.1161 1.82873 6.96066 1.78422L5.9919 1.50797L5.71566 0.539222C5.67115 0.383775 5.57724 0.247046 5.44813 0.14971C5.31902 0.052374 5.16172 -0.000274658 5.00003 -0.000274658C4.83834 -0.000274658 4.68104 0.052374 4.55193 0.14971C4.42282 0.247046 4.32891 0.383775 4.2844 0.539222L4.00815 1.50797L3.0394 1.78422C2.88396 1.82873 2.74723 1.92263 2.64989 2.05175C2.55256 2.18086 2.49991 2.33816 2.49991 2.49985C2.49991 2.66154 2.55256 2.81884 2.64989 2.94795C2.74723 3.07706 2.88396 3.17097 3.0394 3.21547V3.21547ZM10.5394 10.7155L11.5082 10.9917L11.7844 11.9605C11.8289 12.1159 11.9228 12.2526 12.0519 12.35C12.181 12.4473 12.3383 12.5 12.5 12.5C12.6617 12.5 12.819 12.4473 12.9481 12.35C13.0772 12.2526 13.1712 12.1159 13.2157 11.9605L13.4919 10.9917L14.4607 10.7155C14.6161 10.671 14.7528 10.5771 14.8502 10.4479C14.9475 10.3188 15.0002 10.1615 15.0002 9.99985C15.0002 9.83815 14.9475 9.68086 14.8502 9.55175C14.7528 9.42263 14.6161 9.32873 14.4607 9.28422L13.4919 9.00797L13.2157 8.03922C13.1712 7.88378 13.0772 7.74705 12.9481 7.64971C12.819 7.55237 12.6617 7.49973 12.5 7.49973C12.3383 7.49973 12.181 7.55237 12.0519 7.64971C11.9228 7.74705 11.8289 7.88378 11.7844 8.03922L11.5082 9.00797L10.5394 9.28422C10.384 9.32873 10.2472 9.42263 10.1499 9.55175C10.0526 9.68086 9.99991 9.83815 9.99991 9.99985C9.99991 10.1615 10.0526 10.3188 10.1499 10.4479C10.2472 10.5771 10.384 10.671 10.5394 10.7155V10.7155ZM11.0975 2.81235L11.9444 3.05422L12.1875 3.90235C12.2271 4.03746 12.3094 4.15611 12.4221 4.24053C12.5347 4.32494 12.6717 4.37056 12.8125 4.37056C12.9533 4.37056 13.0903 4.32494 13.203 4.24053C13.3157 4.15611 13.398 4.03746 13.4375 3.90235L13.6794 3.05547L14.5275 2.81235C14.6626 2.77278 14.7813 2.69049 14.8657 2.57781C14.9501 2.46513 14.9957 2.32814 14.9957 2.18735C14.9957 2.04656 14.9501 1.90956 14.8657 1.79688C14.7813 1.68421 14.6626 1.60192 14.5275 1.56235L13.6807 1.32047L13.4375 0.472347C13.398 0.337233 13.3157 0.21858 13.203 0.134168C13.0903 0.049756 12.9533 0.00413165 12.8125 0.00413165C12.6717 0.00413165 12.5347 0.049756 12.4221 0.134168C12.3094 0.21858 12.2271 0.337233 12.1875 0.472347L11.9457 1.31922L11.0975 1.56235C10.9624 1.60192 10.8438 1.68421 10.7594 1.79688C10.6749 1.90956 10.6293 2.04656 10.6293 2.18735C10.6293 2.32814 10.6749 2.46513 10.7594 2.57781C10.8438 2.69049 10.9624 2.77278 11.0975 2.81235Z" fill="#374957"/>
</g>
<defs>
<clipPath id="clip0_23_232">
<rect width="15" height="15" fill="white"/>
</clipPath>
</defs>
</svg>
