<svg width="15" height="15" viewBox="0 0 15 15" fill="none" xmlns="http://www.w3.org/2000/svg">
<g clip-path="url(#clip0_23_535)">
<path d="M14.375 10C14.2783 9.99999 14.1828 9.97753 14.0963 9.93438L12.8463 9.30938C12.6979 9.23528 12.5851 9.10529 12.5325 8.94799C12.48 8.79069 12.4922 8.61898 12.5663 8.47063C12.6403 8.32227 12.7703 8.20942 12.9276 8.15691C13.0849 8.1044 13.2566 8.11653 13.405 8.19062L14.655 8.81562C14.7812 8.8785 14.8824 8.98219 14.9422 9.10984C15.002 9.23749 15.0169 9.38161 14.9844 9.5188C14.952 9.65598 14.8742 9.77817 14.7635 9.86553C14.6529 9.95288 14.516 10.0003 14.375 10V10ZM13.4044 4.3125L14.6544 3.6875C14.8027 3.61341 14.9156 3.48341 14.9681 3.32612C15.0206 3.16882 15.0085 2.99711 14.9344 2.84875C14.8603 2.70039 14.7303 2.58755 14.573 2.53504C14.4157 2.48253 14.244 2.49466 14.0956 2.56875L12.8456 3.19375C12.6973 3.26784 12.5844 3.39784 12.5319 3.55514C12.4794 3.71243 12.4915 3.88414 12.5656 4.0325C12.6397 4.18086 12.7697 4.2937 12.927 4.34621C13.0843 4.39872 13.256 4.38659 13.4044 4.3125V4.3125ZM15 6.25C15 6.08424 14.9342 5.92527 14.8169 5.80806C14.6997 5.69085 14.5408 5.625 14.375 5.625H13.125C12.9592 5.625 12.8003 5.69085 12.6831 5.80806C12.5658 5.92527 12.5 6.08424 12.5 6.25C12.5 6.41576 12.5658 6.57473 12.6831 6.69194C12.8003 6.80915 12.9592 6.875 13.125 6.875H14.375C14.5408 6.875 14.6997 6.80915 14.8169 6.69194C14.9342 6.57473 15 6.41576 15 6.25ZM11.25 11.875V0.625C11.25 0.45924 11.1842 0.300269 11.0669 0.183058C10.9497 0.065848 10.7908 0 10.625 0C10.4592 0 10.3003 0.065848 10.1831 0.183058C10.0658 0.300269 10 0.45924 10 0.625C10 2.46812 8.38563 3.125 6.875 3.125H2.5C1.83696 3.125 1.20107 3.38839 0.732233 3.85723C0.263392 4.32607 0 4.96196 0 5.625L0 6.875C0 7.53804 0.263392 8.17393 0.732233 8.64277C1.20107 9.11161 1.83696 9.375 2.5 9.375H6.875C8.38563 9.375 10 10.0319 10 11.875C10 12.0408 10.0658 12.1997 10.1831 12.3169C10.3003 12.4342 10.4592 12.5 10.625 12.5C10.7908 12.5 10.9497 12.4342 11.0669 12.3169C11.1842 12.1997 11.25 12.0408 11.25 11.875ZM5.11625 10.625H2.5C2.20901 10.6238 1.91914 10.5888 1.63625 10.5206L3.19875 14.0094C3.32998 14.3042 3.54387 14.5547 3.81452 14.7306C4.08518 14.9064 4.401 15 4.72375 15C4.98053 14.9997 5.23315 14.9351 5.45857 14.8121C5.684 14.6891 5.87506 14.5117 6.01436 14.296C6.15366 14.0803 6.23675 13.8331 6.25608 13.5771C6.2754 13.321 6.23034 13.0642 6.125 12.83L5.11625 10.625Z" fill="#218C74"/>
</g>
<defs>
<clipPath id="clip0_23_535">
<rect width="15" height="15" fill="white"/>
</clipPath>
</defs>
</svg>
