<svg width="20" height="20" viewBox="0 0 20 20" fill="none" xmlns="http://www.w3.org/2000/svg">
<g clip-path="url(#clip0_23_71)">
<path d="M19.6345 17.8712L15.7636 13.9986C18.66 10.128 17.8703 4.64213 13.9996 1.7457C10.129 -1.15074 4.64314 -0.360973 1.7467 3.50967C-1.14973 7.38032 -0.359966 12.8661 3.51068 15.7626C6.6199 18.0892 10.8904 18.0892 13.9996 15.7626L17.8722 19.6352C18.3589 20.1218 19.1479 20.1218 19.6345 19.6352C20.1212 19.1485 20.1212 18.3595 19.6345 17.8729L19.6345 17.8712ZM8.78742 15.0151C5.34737 15.0151 2.5587 12.2265 2.5587 8.78641C2.5587 5.34637 5.34737 2.55769 8.78742 2.55769C12.2275 2.55769 15.0161 5.34637 15.0161 8.78641C15.0125 12.2249 12.2259 15.0115 8.78742 15.0151Z" fill="white"/>
</g>
<defs>
<clipPath id="clip0_23_71">
<rect width="20" height="20" fill="white"/>
</clipPath>
</defs>
</svg>
