<svg width="20" height="20" viewBox="0 0 20 20" fill="none" xmlns="http://www.w3.org/2000/svg">
<path d="M6.24998 3.95833C6.24998 3.15292 5.59706 2.5 4.79165 2.5C3.98623 2.5 3.33331 3.15292 3.33331 3.95833C3.33331 4.76375 3.98623 5.41667 4.79165 5.41667C5.59706 5.41667 6.24998 4.76375 6.24998 3.95833Z" stroke="white" stroke-width="1.5"/>
<path d="M11.6667 9.79168C11.6667 8.98626 11.0137 8.33334 10.2083 8.33334C9.40292 8.33334 8.75 8.98626 8.75 9.79168C8.75 10.5971 9.40292 11.25 10.2083 11.25C11.0137 11.25 11.6667 10.5971 11.6667 9.79168Z" stroke="white" stroke-width="1.5"/>
<path fill-rule="evenodd" clip-rule="evenodd" d="M4.79169 7.5C4.44651 7.5 4.16669 7.77983 4.16669 8.125V16.875C4.16669 17.2202 4.44651 17.5 4.79169 17.5C5.13686 17.5 5.41669 17.2202 5.41669 16.875V8.125C5.41669 7.77983 5.13686 7.5 4.79169 7.5Z" fill="white"/>
<path fill-rule="evenodd" clip-rule="evenodd" d="M15.625 2.5C15.2798 2.5 15 2.77983 15 3.125V11.875C15 12.2202 15.2798 12.5 15.625 12.5C15.9702 12.5 16.25 12.2202 16.25 11.875V3.125C16.25 2.77983 15.9702 2.5 15.625 2.5Z" fill="white"/>
<path fill-rule="evenodd" clip-rule="evenodd" d="M10.2083 2.5C10.5535 2.5 10.8333 2.77983 10.8333 3.125V6.04167C10.8333 6.38684 10.5535 6.66667 10.2083 6.66667C9.86315 6.66667 9.58331 6.38684 9.58331 6.04167V3.125C9.58331 2.77983 9.86315 2.5 10.2083 2.5ZM10.2083 13.3333C9.86315 13.3333 9.58331 13.6132 9.58331 13.9583V16.875C9.58331 17.2202 9.86315 17.5 10.2083 17.5C10.5535 17.5 10.8333 17.2202 10.8333 16.875V13.9583C10.8333 13.6132 10.5535 13.3333 10.2083 13.3333Z" fill="white"/>
<path d="M17.0834 16.0417C17.0834 15.2363 16.4304 14.5833 15.625 14.5833C14.8196 14.5833 14.1667 15.2363 14.1667 16.0417C14.1667 16.8471 14.8196 17.5 15.625 17.5C16.4304 17.5 17.0834 16.8471 17.0834 16.0417Z" stroke="white" stroke-width="1.5"/>
</svg>
