<svg width="12" height="12" viewBox="0 0 12 12" fill="none" xmlns="http://www.w3.org/2000/svg">
<g clip-path="url(#clip0_23_539)">
<path d="M7.75 6.75H6.655C6.46504 6.9172 6.21853 7.00578 5.9656 6.99773C5.71266 6.98968 5.47228 6.8856 5.29334 6.70666C5.1144 6.52772 5.01032 6.28734 5.00227 6.0344C4.99422 5.78147 5.0828 5.53496 5.25 5.345V3.5C5.25 3.30109 5.32902 3.11032 5.46967 2.96967C5.61032 2.82902 5.80109 2.75 6 2.75C6.19891 2.75 6.38968 2.82902 6.53033 2.96967C6.67098 3.11032 6.75 3.30109 6.75 3.5V5.25H7.75C7.94891 5.25 8.13968 5.32902 8.28033 5.46967C8.42098 5.61032 8.5 5.80109 8.5 6C8.5 6.19891 8.42098 6.38968 8.28033 6.53033C8.13968 6.67098 7.94891 6.75 7.75 6.75V6.75ZM6 0C5.80109 0 5.61032 0.0790176 5.46967 0.21967C5.32902 0.360322 5.25 0.551088 5.25 0.75C5.25 0.948912 5.32902 1.13968 5.46967 1.28033C5.61032 1.42098 5.80109 1.5 6 1.5C7.19307 1.50132 8.33689 1.97585 9.18052 2.81948C10.0241 3.66311 10.4987 4.80693 10.5 6C10.5 6.19891 10.579 6.38968 10.7197 6.53033C10.8603 6.67098 11.0511 6.75 11.25 6.75C11.4489 6.75 11.6397 6.67098 11.7803 6.53033C11.921 6.38968 12 6.19891 12 6C11.9983 4.40923 11.3656 2.88411 10.2407 1.75926C9.1159 0.634414 7.59077 0.00172054 6 0V0ZM1.5 6.25C1.5 6.10166 1.45601 5.95666 1.3736 5.83332C1.29119 5.70999 1.17406 5.61386 1.03701 5.55709C0.899968 5.50032 0.749168 5.48547 0.603683 5.51441C0.458197 5.54335 0.32456 5.61478 0.21967 5.71967C0.114781 5.82456 0.0433503 5.9582 0.0144114 6.10368C-0.0145275 6.24917 0.000324965 6.39997 0.0570907 6.53701C0.113856 6.67406 0.209986 6.79119 0.333323 6.8736C0.45666 6.95601 0.601664 7 0.75 7C0.948913 7 1.13968 6.92098 1.28033 6.78033C1.42098 6.63968 1.5 6.44891 1.5 6.25V6.25ZM3.37 0.947C3.22166 0.947 3.07666 0.990987 2.95332 1.0734C2.82999 1.15581 2.73386 1.27294 2.67709 1.40999C2.62032 1.54703 2.60547 1.69783 2.63441 1.84332C2.66335 1.9888 2.73478 2.12244 2.83967 2.22733C2.94456 2.33222 3.0782 2.40365 3.22368 2.43259C3.36917 2.46153 3.51997 2.44668 3.65701 2.38991C3.79406 2.33314 3.91119 2.23701 3.9936 2.11368C4.07601 1.99034 4.12 1.84534 4.12 1.697C4.12 1.49809 4.04098 1.30732 3.90033 1.16667C3.75968 1.02602 3.56891 0.947 3.37 0.947ZM1.4565 2.875C1.30816 2.875 1.16316 2.91899 1.03982 3.0014C0.916486 3.08381 0.820356 3.20094 0.763591 3.33799C0.706825 3.47503 0.691972 3.62583 0.720911 3.77132C0.74985 3.9168 0.821281 4.05044 0.92617 4.15533C1.03106 4.26022 1.1647 4.33165 1.31018 4.36059C1.45567 4.38953 1.60647 4.37468 1.74351 4.31791C1.88056 4.26114 1.99769 4.16501 2.0801 4.04168C2.16251 3.91834 2.2065 3.77334 2.2065 3.625C2.2065 3.42609 2.12748 3.23532 1.98683 3.09467C1.84618 2.95402 1.65541 2.875 1.4565 2.875ZM3.37 10.053C3.22166 10.053 3.07666 10.097 2.95332 10.1794C2.82999 10.2618 2.73386 10.3789 2.67709 10.516C2.62032 10.653 2.60547 10.8038 2.63441 10.9493C2.66335 11.0948 2.73478 11.2284 2.83967 11.3333C2.94456 11.4382 3.0782 11.5096 3.22368 11.5386C3.36917 11.5675 3.51997 11.5527 3.65701 11.4959C3.79406 11.4391 3.91119 11.343 3.9936 11.2197C4.07601 11.0963 4.12 10.9513 4.12 10.803C4.12 10.6041 4.04098 10.4133 3.90033 10.2727C3.75968 10.132 3.56891 10.053 3.37 10.053ZM1.4565 8.125C1.30816 8.125 1.16316 8.16899 1.03982 8.2514C0.916486 8.33381 0.820356 8.45094 0.763591 8.58799C0.706825 8.72503 0.691972 8.87583 0.720911 9.02132C0.74985 9.1668 0.821281 9.30044 0.92617 9.40533C1.03106 9.51022 1.1647 9.58165 1.31018 9.61059C1.45567 9.63953 1.60647 9.62467 1.74351 9.56791C1.88056 9.51114 1.99769 9.41501 2.0801 9.29168C2.16251 9.16834 2.2065 9.02334 2.2065 8.875C2.2065 8.67609 2.12748 8.48532 1.98683 8.34467C1.84618 8.20402 1.65541 8.125 1.4565 8.125ZM6 10.5C5.85166 10.5 5.70666 10.544 5.58332 10.6264C5.45999 10.7088 5.36386 10.8259 5.30709 10.963C5.25033 11.1 5.23547 11.2508 5.26441 11.3963C5.29335 11.5418 5.36478 11.6754 5.46967 11.7803C5.57456 11.8852 5.7082 11.9567 5.85368 11.9856C5.99917 12.0145 6.14997 11.9997 6.28701 11.9429C6.42406 11.8861 6.54119 11.79 6.6236 11.6667C6.70601 11.5433 6.75 11.3983 6.75 11.25C6.75 11.0511 6.67098 10.8603 6.53033 10.7197C6.38968 10.579 6.19891 10.5 6 10.5ZM10.553 7.88C10.4047 7.88 10.2597 7.92399 10.1363 8.0064C10.013 8.08881 9.91686 8.20594 9.86009 8.34299C9.80332 8.48003 9.78847 8.63083 9.81741 8.77632C9.84635 8.9218 9.91778 9.05544 10.0227 9.16033C10.1276 9.26522 10.2612 9.33665 10.4067 9.36559C10.5522 9.39453 10.703 9.37968 10.84 9.32291C10.9771 9.26614 11.0942 9.17001 11.1766 9.04668C11.259 8.92334 11.303 8.77834 11.303 8.63C11.303 8.43109 11.224 8.24032 11.0833 8.09967C10.9427 7.95902 10.7519 7.88 10.553 7.88V7.88ZM8.625 9.7935C8.47666 9.7935 8.33166 9.83749 8.20832 9.9199C8.08499 10.0023 7.98886 10.1194 7.93209 10.2565C7.87533 10.3935 7.86047 10.5443 7.88941 10.6898C7.91835 10.8353 7.98978 10.9689 8.09467 11.0738C8.19956 11.1787 8.3332 11.2502 8.47868 11.2791C8.62417 11.308 8.77497 11.2932 8.91201 11.2364C9.04906 11.1796 9.16619 11.0835 9.2486 10.9602C9.33101 10.8368 9.375 10.6918 9.375 10.5435C9.375 10.3446 9.29598 10.1538 9.15533 10.0132C9.01468 9.87252 8.82391 9.7935 8.625 9.7935Z" fill="#7158E2"/>
</g>
<defs>
<clipPath id="clip0_23_539">
<rect width="12" height="12" fill="white"/>
</clipPath>
</defs>
</svg>
