<?xml version="1.0" encoding="UTF-8"?>
<svg xmlns="http://www.w3.org/2000/svg" id="Layer_1" data-name="Layer 1" viewBox="0 0 24 24">
  <path d="m8,12c3.309,0,6-2.691,6-6S11.309,0,8,0,2,2.691,2,6s2.691,6,6,6Zm0-9c1.654,0,3,1.346,3,3s-1.346,3-3,3-3-1.346-3-3,1.346-3,3-3Zm8,16v5h-3v-5c0-1.103-.897-2-2-2h-6c-1.103,0-2,.897-2,2v5H0v-5c0-2.757,2.243-5,5-5h6c2.757,0,5,2.243,5,5Zm8.061-9.525l-4.793,4.793c-.487.487-1.127.731-1.768.731s-1.28-.244-1.768-.731l-2.793-2.793,2.121-2.121,2.439,2.439,4.439-4.439,2.121,2.121Z"/>
</svg>
